<svg xmlns="http://www.w3.org/2000/svg" viewBox="0 0 512 512" width="512" height="512">
  <defs>
    <linearGradient id="bg" x1="0" y1="0" x2="1" y2="1">
      <stop offset="0%" stop-color="#0D9488"/>
      <stop offset="100%" stop-color="#14B8A6"/>
    </linearGradient>
    <linearGradient id="beak" x1="0" y1="0" x2="1" y2="0">
      <stop offset="0%" stop-color="#F97316"/>
      <stop offset="50%" stop-color="#FB923C"/>
      <stop offset="100%" stop-color="#FED7AA"/>
    </linearGradient>
  </defs>
  <rect width="512" height="512" rx="112" fill="url(#bg)"/>
  <!-- Puffin body -->
  <ellipse cx="256" cy="300" rx="120" ry="140" fill="#1e293b"/>
  <!-- White belly -->
  <ellipse cx="256" cy="340" rx="80" ry="100" fill="#f8fafc"/>
  <!-- Head -->
  <circle cx="256" cy="180" r="78" fill="#1e293b"/>
  <!-- White face patch -->
  <path d="M200 175 Q220 140 256 145 Q292 140 312 175 Q310 200 280 210 Q256 215 232 210 Q202 200 200 175 Z" fill="#f8fafc"/>
  <!-- Eye -->
  <circle cx="256" cy="172" r="14" fill="#0f172a"/>
  <circle cx="260" cy="168" r="5" fill="#f8fafc"/>
  <!-- Colorful beak (puffin signature) -->
  <path d="M224 210 Q256 198 288 210 Q290 230 270 238 Q256 242 242 238 Q222 230 224 210 Z" fill="url(#beak)"/>
  <path d="M238 218 Q256 214 274 218 L256 232 Z" fill="#F97316"/>
  <!-- Wing -->
  <path d="M170 280 Q180 340 230 380 Q210 350 200 300 Z" fill="#334155"/>
  <!-- Orange feet -->
  <path d="M216 430 L216 455 M206 455 L226 455" stroke="#F97316" stroke-width="10" stroke-linecap="round" fill="none"/>
  <path d="M296 430 L296 455 M286 455 L306 455" stroke="#F97316" stroke-width="10" stroke-linecap="round" fill="none"/>
</svg>
