<svg xmlns="http://www.w3.org/2000/svg" viewBox="0 0 512 512" width="512" height="512">
  <defs>
    <linearGradient id="bg" x1="0" y1="0" x2="1" y2="1">
      <stop offset="0%" stop-color="#0077F0"/>
      <stop offset="100%" stop-color="#3399FF"/>
    </linearGradient>
  </defs>
  <rect width="512" height="512" rx="112" fill="url(#bg)"/>
  <g fill="none" stroke="#fff" stroke-width="20" stroke-linejoin="round" stroke-linecap="round">
    <path d="M120 100 a20 20 0 0 1 20-20 h180 a40 40 0 0 1 40 40 v280 a40 40 0 0 1-40 40 h-200 a20 20 0 0 1-20-20 v-320 Z"/>
    <path d="M180 170 h120 M180 230 h120"/>
    <path d="m320 300 40-40 30 30-40 40-50 10 10-50 Z"/>
    <path d="m300 320-120 120"/>
  </g>
  <circle cx="372" cy="140" r="28" fill="#F4C542" stroke="#fff" stroke-width="8"/>
  <path d="M360 140 l8 8 16-16" fill="none" stroke="#fff" stroke-width="8" stroke-linecap="round" stroke-linejoin="round"/>
</svg>
